<svg width="416" height="416" viewBox="0 0 416 416" xmlns="http://www.w3.org/2000/svg" xmlns:sketch="http://www.bohemiancoding.com/sketch/ns"><title>sunny</title><path d="M96 208c0 61.75 50.25 112 112 112s112-50.25 112-112-50.25-112-112-112-112 50.25-112 112zm32 0c0-44.188 35.812-80 80-80s80 35.812 80 80-35.812 80-80 80-80-35.812-80-80zm96-160v-32c0-8.833-7.167-16-16-16s-16 7.167-16 16v32c0 8.833 7.167 16 16 16s16-7.167 16-16zm-32 320v32c0 8.833 7.167 16 16 16s16-7.167 16-16v-32c0-8.833-7.167-16-16-16s-16 7.167-16 16zm163.063-284.458c6.25-6.25 6.25-16.375 0-22.625s-16.375-6.25-22.625 0l-22.625 22.625c-6.25 6.25-6.25 16.375 0 22.625 6.249 6.25 16.375 6.25 22.625 0l22.625-22.625zm-294.126 248.917c-6.25 6.249-6.25 16.374 0 22.624s16.375 6.25 22.625 0l22.625-22.624c6.25-6.271 6.25-16.376 0-22.625-6.249-6.251-16.375-6.272-22.625 0l-22.625 22.625zm-12.937-140.459h-32c-8.833 0-16 7.167-16 16s7.167 16 16 16h32c8.833 0 16-7.167 16-16s-7.167-16-16-16zm320 0c-8.833 0-16 7.167-16 16s7.167 16 16 16h32c8.833 0 16-7.167 16-16s-7.167-16-16-16h-32zm-261.834-85.833c6.251-6.25 6.251-16.375 0-22.625l-22.625-22.625c-6.25-6.25-16.374-6.25-22.625 0-6.25 6.25-6.25 16.375 0 22.625l22.625 22.625c6.251 6.25 16.376 6.25 22.625 0zm203.668 203.645c-6.251 6.25-6.271 16.375 0 22.625l22.625 22.625c6.249 6.25 16.374 6.25 22.624 0s6.25-16.374 0-22.625l-22.624-22.625c-6.271-6.25-16.376-6.25-22.625 0z" fill="#fff" sketch:type="MSShapeGroup"/></svg>