<svg width="512" height="416" viewBox="0 0 512 416" xmlns="http://www.w3.org/2000/svg" xmlns:sketch="http://www.bohemiancoding.com/sketch/ns"><title>Slice 1</title><path d="M326.042 347.688l-18-10.375c.542-3.125.958-6.312.958-9.625 0-3.312-.416-6.5-1-9.625l18.042-10.396c8.417-4.917 11.291-15.729 6.458-24.104-4.876-8.479-15.667-11.375-24.125-6.5l-18.188 10.5c-4.877-4.146-10.375-7.396-16.5-9.604v-20.896c0-9.771-7.938-17.688-17.688-17.688s-17.666 7.917-17.666 17.688v20.875c-6.126 2.188-11.646 5.479-16.521 9.625l-18.146-10.5c-8.479-4.875-19.292-2-24.167 6.479-4.875 8.417-1.938 19.25 6.5 24.126l17.959 10.375c-.584 3.146-.959 6.334-.959 9.646 0 3.312.375 6.5.959 9.623l-17.958 10.376c-8.459 4.875-11.375 15.75-6.5 24.188 4.875 8.438 15.688 11.312 24.125 6.438l18.167-10.438c4.874 4.125 10.396 7.375 16.542 9.562v20.938c0 9.749 7.916 17.624 17.666 17.624s17.688-7.875 17.688-17.624v-20.938c6.125-2.188 11.688-5.438 16.521-9.625l18.167 10.5c8.458 4.875 19.249 2 24.125-6.438 4.874-8.437 1.999-19.25-6.459-24.187zm-70.042-2.313c-9.75 0-17.688-7.938-17.688-17.688s7.938-17.646 17.688-17.646 17.667 7.896 17.667 17.646-7.917 17.688-17.667 17.688zm144-281.375c-5.312 0-10.562.375-15.792 1.125-29.874-40.708-77.02-65.125-128.208-65.125s-98.312 24.417-128.208 65.125c-5.23-.75-10.48-1.125-15.792-1.125-61.75 0-112 50.25-112 112s50.25 112 112 112c11.812 0 23.334-2.208 34.438-5.834 1.062-5.082 2.729-10.041 5.375-14.645 3.938-6.854 9.562-12.312 16-16.502-3.312-3.229-6.938-6.104-9.875-9.688-13 9.169-28.813 14.669-45.938 14.669-44.188 0-80-35.812-80-80s35.812-80 80-80c10.812 0 21.062 2.208 30.438 6.083 21.229-41.416 63.853-70.083 113.562-70.083 49.709 0 92.334 28.667 113.541 70.083 9.397-3.875 19.668-6.083 30.459-6.083 44.188 0 80 35.812 80 80s-35.812 80-80 80c-17.125 0-32.916-5.5-45.938-14.667-2.938 3.583-6.604 6.459-9.896 9.688 6.459 4.207 12.125 9.688 16.042 16.562 2.708 4.646 4.354 9.584 5.416 14.583 11.064 3.626 22.564 5.834 34.376 5.834 61.75 0 112-50.25 112-112s-50.25-112-112-112z" fill="#fff" sketch:type="MSShapeGroup"/></svg>