<svg width="512" height="512" viewBox="0 0 512 512" xmlns="http://www.w3.org/2000/svg" xmlns:sketch="http://www.bohemiancoding.com/sketch/ns"><title>Slice 1</title><path d="M400 64c-5.312 0-10.562.375-15.792 1.125-29.874-40.708-77.02-65.125-128.208-65.125s-98.312 24.417-128.208 65.125c-5.23-.75-10.48-1.125-15.792-1.125-61.75 0-112 50.25-112 112s50.25 112 112 112c13.688 0 27.084-2.5 39.709-7.333 28.957 25.25 65.791 39.333 104.291 39.333 38.542 0 75.333-14.083 104.291-39.333 12.625 4.833 26.021 7.333 39.709 7.333 61.75 0 112-50.25 112-112s-50.25-112-112-112zm0 192c-9.709 0-19.209-1.75-28.25-5.208l-18-6.917-14.5 12.667c-23.25 20.291-52.812 31.458-83.25 31.458-30.438 0-60-11.167-83.25-31.458l-14.5-12.667-18 6.917c-9 3.458-18.541 5.208-28.25 5.208-44.125 0-80-35.896-80-80s35.875-80 80-80c3.792 0 7.5.271 11.25.792l18.958 2.75 11.354-15.458c24.313-33.105 61.647-52.084 102.438-52.084 40.812 0 78.125 18.958 102.417 52.063l11.375 15.479 18.999-2.75c3.709-.521 7.417-.792 11.209-.792 44.125 0 80 35.896 80 80s-35.875 80-80 80zm-304 64c-17.688 0-32 14.312-32 32 0 17.688 14.312 32 32 32 17.688 0 32-14.312 32-32 0-17.688-14.312-32-32-32zm160 32c-17.688 0-32 14.312-32 32 0 17.688 14.312 32 32 32 17.688 0 32-14.312 32-32 0-17.688-14.312-32-32-32zm160-32c-17.688 0-32 14.312-32 32 0 17.688 14.312 32 32 32 17.688 0 32-14.312 32-32 0-17.688-14.312-32-32-32zm-64 128c-17.688 0-32 14.312-32 32 0 17.688 14.312 32 32 32 17.688 0 32-14.312 32-32 0-17.688-14.312-32-32-32zm-192 0c-17.688 0-32 14.312-32 32 0 17.688 14.312 32 32 32 17.688 0 32-14.312 32-32 0-17.688-14.312-32-32-32z" fill="#fff" sketch:type="MSShapeGroup"/></svg>