<svg width="75" height="61" viewBox="0 0 75 61" xmlns="http://www.w3.org/2000/svg" xmlns:sketch="http://www.bohemiancoding.com/sketch/ns"><title>Slice 1</title><g stroke="none" stroke-width="1" fill="none" fill-rule="evenodd" sketch:type="MSPage"><g sketch:type="MSLayerGroup" fill="#FFFFFF"><path d="M28.3823768,0 C26.1699533,0 23.4429661,1.53508528 22.2977116,3.41718984 L15.5082743,14.5828102 C14.3600164,16.469915 15.2229617,18 17.4353853,18 L56.638329,18 C58.8497514,18 59.6506287,16.5119173 58.4272887,14.6778154 L50.8529916,3.32218457 C49.6286505,1.48708262 46.8526095,3.55291106e-15 44.6311761,3.55291106e-15 L28.3833779,3.55291106e-15 L28.3823768,0 Z" id="Path" sketch:type="MSShapeGroup"/><path d="M37.5,43 C42.194,43 46,39.194 46,34.5 C46,29.806 42.194,26 37.5,26 C32.806,26 29,29.806 29,34.5 C29,39.194 32.806,43 37.5,43 L37.5,43 Z" id="Shape" sketch:type="MSShapeGroup"/><path d="M7.991,11 C3.578,11 0,14.5759285 0,19.0058399 L0,52.9941601 C0,57.4150717 3.58,61 7.991,61 L67.009,61 C71.422,61 75,57.4240715 75,52.9941601 L75,19.0058399 C75,14.5849283 71.42,11 67.009,11 L7.991,11 L7.991,11 Z M37.5,51 C46.613,51 54,43.613 54,34.5 C54,25.387 46.613,18 37.5,18 C28.387,18 21,25.387 21,34.5 C21,43.613 28.387,51 37.5,51 Z" id="Path" sketch:type="MSShapeGroup"/></g></g></svg>
