<svg width="15" height="15" viewBox="0 0 15 15" xmlns="http://www.w3.org/2000/svg" xmlns:sketch="http://www.bohemiancoding.com/sketch/ns"><title>pie-chart bullet</title><defs><linearGradient x1="100%" y1="0%" x2="0%" y2="0%" id="a"><stop stop-color="#91E809" offset="0%"/><stop stop-color="#69CB1D" offset="100%"/></linearGradient><linearGradient x1="50%" y1="100%" x2="50%" y2="0%" id="b"><stop stop-color="#2E9DE8" offset="0%"/><stop stop-color="#39A9ED" offset="100%"/><stop stop-color="#4CBDF5" offset="100%"/></linearGradient><linearGradient x1="50%" y1="0%" x2="50%" y2="100%" id="c"><stop stop-color="#FFC00D" offset="0%"/><stop stop-color="#FFED3B" offset="100%"/></linearGradient><linearGradient x1="50%" y1="0%" x2="50%" y2="100%" id="d"><stop stop-color="#DE3B1D" offset="0%"/><stop stop-color="#FC7527" offset="100%"/></linearGradient></defs><g sketch:type="MSLayerGroup" fill="none"><path d="M7.5 14.5c3.866 0 7-3.134 7-7s-3.134-7-7-7" fill="url(#a)" sketch:type="MSShapeGroup"/><path d="M.5 7.5c0 3.866 3.134 7 7 7 2.441 0 4.591-1.25 5.843-3.144l-5.843-3.856" fill="url(#b)" sketch:type="MSShapeGroup"/><path d="M7.5.5c-3.866 0-7 3.134-7 7 0 2.694 1.522 5.033 3.753 6.203l3.247-6.203" fill="url(#c)" sketch:type="MSShapeGroup"/><path d="M7.5 7.5v-7c-3.146 0-5.808 2.076-6.69 4.933" fill="url(#d)" sketch:type="MSShapeGroup"/><circle fill="#fff" sketch:type="MSShapeGroup" cx="7.5" cy="7.5" r="2.5"/></g></svg>