<?xml version="1.0" encoding="UTF-8" standalone="no"?>
<svg width="277px" height="134px" viewBox="0 0 277 134" version="1.1" xmlns="http://www.w3.org/2000/svg" xmlns:xlink="http://www.w3.org/1999/xlink" xmlns:sketch="http://www.bohemiancoding.com/sketch/ns">
    <!-- Generator: Sketch 3.0.4 (8054) - http://www.bohemiancoding.com/sketch -->
    <title>Slice 2</title>
    <desc>Created with Sketch.</desc>
    <defs></defs>
    <g id="Page-1" stroke="none" stroke-width="1" fill="none" fill-rule="evenodd" sketch:type="MSPage">
        <g id="66_logo_bigru" sketch:type="MSLayerGroup" fill="#FEFEFE">
            <path d="M40.443,87.634 C44.895,87.634 48.487,86.138 51.22,83.143 C53.952,80.148 55.369,76.316 55.47,71.646 C55.47,67.281 54.104,63.549 51.372,60.454 C48.64,57.357 44.997,55.808 40.444,55.808 C35.789,55.808 32.146,57.331 29.515,60.376 C26.884,63.422 25.569,67.179 25.569,71.646 C25.569,76.316 26.884,80.173 29.515,83.219 C32.146,86.264 35.788,87.736 40.443,87.634 L40.443,87.634 Z M102.125,111.723 C106.578,111.723 110.169,110.226 112.9,107.232 C115.632,104.236 117.049,100.404 117.15,95.734 C117.15,91.369 115.784,87.638 113.052,84.542 C110.321,81.443 106.677,79.897 102.124,79.897 C97.469,79.896 93.826,81.419 91.195,84.465 C88.565,87.51 87.249,91.267 87.249,95.734 C87.249,100.403 88.565,104.262 91.195,107.307 C93.827,110.353 97.47,111.824 102.125,111.723 L102.125,111.723 Z M36.041,0.377 L67.461,0.377 L41.505,37.687 C42.922,37.28 44.338,36.951 45.755,36.697 C47.172,36.444 48.689,36.317 50.309,36.317 C59.719,36.316 67.359,39.591 73.229,46.139 C75.158,48.291 76.767,50.64 78.062,53.192 L97.723,24.467 L129.142,24.467 L103.187,61.775 C104.604,61.37 106.02,61.041 107.437,60.787 C108.854,60.532 110.371,60.407 111.99,60.407 C121.401,60.407 129.041,63.68 134.91,70.228 C140.779,76.776 143.714,85.177 143.714,95.43 C143.714,106.394 140.071,115.582 132.785,122.993 C125.5,130.405 115.38,134.11 102.429,134.11 C90.184,134.11 80.319,130.608 72.83,123.602 C67.545,118.657 64.149,112.524 62.644,105.202 C56.573,108.413 49.274,110.021 40.747,110.021 C28.503,110.02 18.637,106.519 11.148,99.514 C3.66,92.508 -0.034,83.118 0.068,71.342 C0.068,64.742 0.979,58.678 2.8,53.145 C4.621,47.611 7.607,41.851 11.756,35.861 L36.041,0.377 L36.041,0.377 Z" id="Shape" sketch:type="MSShapeGroup"></path>
            <path d="M277.204,84.653 C277.204,88.774 276.6,92.467 275.375,95.737 C274.167,98.987 272.373,101.758 270.028,104.013 C267.666,106.269 264.753,107.974 261.271,109.164 C257.807,110.336 253.811,110.922 249.318,110.922 C245.073,110.922 241.271,110.407 237.914,109.342 C234.539,108.276 231.698,106.678 229.371,104.529 C227.061,102.38 225.286,99.698 224.042,96.483 C222.816,93.285 222.195,89.519 222.195,85.221 L222.195,44.262 C222.195,43.924 222.301,43.605 222.515,43.338 C222.71,43.054 223.083,42.823 223.633,42.663 C224.166,42.485 224.876,42.343 225.729,42.236 C226.6,42.13 227.719,42.077 229.069,42.077 C230.383,42.077 231.484,42.13 232.337,42.236 C233.207,42.342 233.9,42.485 234.434,42.663 C234.949,42.823 235.322,43.054 235.553,43.338 C235.766,43.605 235.89,43.924 235.89,44.262 L235.89,84.032 C235.89,86.696 236.209,89.005 236.867,90.976 C237.524,92.93 238.483,94.564 239.71,95.842 C240.936,97.121 242.41,98.08 244.133,98.721 C245.856,99.36 247.774,99.698 249.888,99.698 C252.036,99.698 253.955,99.36 255.66,98.702 C257.365,98.046 258.804,97.087 259.976,95.807 C261.165,94.546 262.072,92.983 262.71,91.135 C263.35,89.271 263.669,87.157 263.669,84.813 L263.669,44.262 C263.669,43.924 263.776,43.605 263.989,43.338 C264.184,43.054 264.557,42.823 265.073,42.663 C265.605,42.485 266.299,42.343 267.186,42.236 C268.075,42.13 269.175,42.077 270.49,42.077 C271.805,42.077 272.887,42.13 273.74,42.236 C274.594,42.342 275.268,42.485 275.801,42.663 C276.317,42.823 276.69,43.054 276.885,43.338 C277.098,43.605 277.204,43.924 277.204,44.262 L277.204,84.653 L277.204,84.653 Z M204.149,62.272 C204.149,60.052 203.651,58.188 202.639,56.66 C201.644,55.133 199.993,54.049 197.701,53.428 C197.009,53.25 196.226,53.108 195.339,53.019 C194.451,52.912 193.226,52.859 191.663,52.859 L185.534,52.859 L185.534,71.953 L192.497,71.953 C194.451,71.953 196.139,71.722 197.595,71.243 C199.052,70.781 200.278,70.124 201.237,69.271 C202.214,68.418 202.942,67.406 203.422,66.233 C203.918,65.044 204.149,63.729 204.149,62.272 L204.149,62.272 Z M221.805,107.957 C221.805,108.348 221.734,108.668 221.591,108.935 C221.449,109.183 221.13,109.396 220.597,109.574 C220.082,109.752 219.319,109.877 218.306,109.947 C217.311,110.018 215.944,110.054 214.202,110.054 C212.746,110.054 211.574,110.018 210.721,109.947 C209.851,109.877 209.158,109.734 208.661,109.556 C208.163,109.361 207.808,109.113 207.595,108.827 C207.382,108.526 207.204,108.17 207.062,107.762 L201.041,92.718 C200.312,91.013 199.602,89.503 198.909,88.188 C198.199,86.875 197.435,85.773 196.582,84.884 C195.729,83.996 194.753,83.339 193.651,82.878 C192.533,82.433 191.254,82.202 189.797,82.202 L185.534,82.202 L185.534,107.868 C185.534,108.206 185.41,108.526 185.197,108.792 C184.966,109.076 184.593,109.308 184.078,109.467 C183.545,109.645 182.851,109.786 181.981,109.894 C181.129,110 180.01,110.054 178.66,110.054 C177.347,110.054 176.245,110 175.356,109.894 C174.468,109.787 173.757,109.645 173.243,109.467 C172.728,109.308 172.354,109.076 172.16,108.792 C171.946,108.526 171.84,108.206 171.84,107.868 L171.84,46.713 C171.84,45.186 172.231,44.085 173.013,43.41 C173.794,42.734 174.753,42.397 175.908,42.397 L193.333,42.397 C195.109,42.397 196.565,42.433 197.702,42.504 C198.857,42.575 199.887,42.664 200.828,42.752 C203.528,43.143 205.962,43.8 208.146,44.742 C210.313,45.683 212.142,46.891 213.653,48.4 C215.162,49.91 216.317,51.704 217.116,53.765 C217.916,55.825 218.306,58.206 218.306,60.87 C218.306,63.126 218.021,65.186 217.452,67.033 C216.884,68.898 216.032,70.55 214.931,72.007 C213.812,73.463 212.444,74.724 210.81,75.808 C209.194,76.874 207.329,77.744 205.25,78.402 C206.263,78.899 207.204,79.485 208.093,80.177 C208.963,80.87 209.798,81.704 210.579,82.699 C211.36,83.694 212.106,84.813 212.8,86.074 C213.491,87.353 214.167,88.774 214.824,90.372 L220.49,103.641 C221.022,104.956 221.36,105.933 221.538,106.537 C221.716,107.141 221.805,107.62 221.805,107.957 L221.805,107.957 Z M164.38,102.237 C164.38,105.469 163.829,107.637 162.692,108.739 C161.573,109.858 159.548,110.408 156.635,110.408 C153.722,110.408 151.697,109.858 150.596,108.774 C149.477,107.672 148.926,105.612 148.926,102.557 C148.926,99.289 149.494,97.104 150.614,96.002 C151.751,94.883 153.794,94.332 156.742,94.332 C159.619,94.332 161.608,94.883 162.728,95.967 C163.829,97.069 164.38,99.147 164.38,102.237 L164.38,102.237 Z" id="Shape" sketch:type="MSShapeGroup"></path>
        </g>
    </g>
</svg>