<svg width="23" height="19" viewBox="0 0 23 19" xmlns="http://www.w3.org/2000/svg"><title>Slice 2</title><desc>Created with Sketch.</desc><defs><linearGradient x1="50%" y1="0%" x2="50%" y2="100%" id="a"><stop stop-color="#89BD13" offset="0%"/><stop stop-color="#608013" offset="100%"/></linearGradient></defs><g fill="none" fill-rule="evenodd"><path d="M16.5 4h3.505C21.098 4 22 4.898 22 6.006v9.988c0 1.11-.893 2.006-1.995 2.006H2.995C1.902 18 1 17.102 1 15.994V6.006C1 4.896 1.893 4 2.995 4H6.5l1.056-2.112C7.8 1.398 8.45 1 9.003 1h4.994c.565 0 1.202.397 1.447.888L16.5 4zm-5 11c2.485 0 4.5-2.015 4.5-4.5S13.985 6 11.5 6 7 8.015 7 10.5 9.015 15 11.5 15zm0-2c1.38 0 2.5-1.12 2.5-2.5S12.88 8 11.5 8 9 9.12 9 10.5s1.12 2.5 2.5 2.5z" fill="url(#a)"/></g></svg>