<svg width="278" height="135" viewBox="0 0 278 135" xmlns="http://www.w3.org/2000/svg" xmlns:sketch="http://www.bohemiancoding.com/sketch/ns"><title>Slice 1</title><g sketch:type="MSLayerGroup" fill="#FEFEFE"><path d="M40.443 87.634c4.452 0 8.044-1.496 10.777-4.491 2.732-2.995 4.149-6.827 4.25-11.497 0-4.365-1.366-8.097-4.098-11.192-2.732-3.097-6.375-4.646-10.928-4.646-4.655 0-8.298 1.523-10.929 4.568-2.631 3.046-3.946 6.803-3.946 11.27 0 4.67 1.315 8.527 3.946 11.573 2.631 3.045 6.273 4.517 10.928 4.415zm61.682 24.089c4.453 0 8.044-1.497 10.775-4.491 2.732-2.996 4.149-6.828 4.25-11.498 0-4.365-1.366-8.096-4.098-11.192-2.731-3.099-6.375-4.645-10.928-4.645-4.655-.001-8.298 1.522-10.929 4.568-2.63 3.045-3.946 6.802-3.946 11.269 0 4.669 1.316 8.528 3.946 11.573 2.632 3.046 6.275 4.517 10.93 4.416zm-66.084-111.346h31.42l-25.956 37.31c1.417-.407 2.833-.736 4.25-.99 1.417-.253 2.934-.38 4.554-.38 9.41-.001 17.05 3.274 22.92 9.822 1.929 2.152 3.538 4.501 4.833 7.053l19.661-28.725h31.419l-25.955 37.308c1.417-.405 2.833-.734 4.25-.988 1.417-.255 2.934-.38 4.553-.38 9.411 0 17.051 3.273 22.92 9.821 5.869 6.548 8.804 14.949 8.804 25.202 0 10.964-3.643 20.152-10.929 27.563-7.285 7.412-17.405 11.117-30.356 11.117-12.245 0-22.11-3.502-29.599-10.508-5.285-4.945-8.681-11.078-10.186-18.4-6.071 3.211-13.37 4.819-21.897 4.819-12.244-.001-22.11-3.502-29.599-10.507-7.488-7.006-11.182-16.396-11.08-28.172 0-6.6.911-12.664 2.732-18.197 1.821-5.534 4.807-11.294 8.956-17.284l24.285-35.484zM277.204 84.653c0 4.121-.604 7.814-1.829 11.084-1.208 3.25-3.002 6.021-5.347 8.276-2.362 2.256-5.275 3.961-8.757 5.151-3.464 1.172-7.46 1.758-11.953 1.758-4.245 0-8.047-.515-11.404-1.58-3.375-1.066-6.216-2.664-8.543-4.813-2.31-2.149-4.085-4.831-5.329-8.046-1.226-3.198-1.847-6.964-1.847-11.262v-40.959c0-.338.106-.657.32-.924.195-.284.568-.515 1.118-.675.533-.178 1.243-.32 2.096-.427.871-.106 1.99-.159 3.34-.159 1.314 0 2.415.053 3.268.159.87.106 1.563.249 2.097.427.515.16.888.391 1.119.675.213.267.337.586.337.924v39.77c0 2.664.319 4.973.977 6.944.657 1.954 1.616 3.588 2.843 4.866 1.226 1.279 2.7 2.238 4.423 2.879 1.723.639 3.641.977 5.755.977 2.148 0 4.067-.338 5.772-.996 1.705-.656 3.144-1.615 4.316-2.895 1.189-1.261 2.096-2.824 2.734-4.672.64-1.864.959-3.978.959-6.322v-40.551c0-.338.107-.657.32-.924.195-.284.568-.515 1.084-.675.532-.178 1.226-.32 2.113-.427.889-.106 1.989-.159 3.304-.159 1.315 0 2.397.053 3.25.159.854.106 1.528.249 2.061.427.516.16.889.391 1.084.675.213.267.319.586.319.924v40.391zm-73.055-22.381c0-2.22-.498-4.084-1.51-5.612-.995-1.527-2.646-2.611-4.938-3.232-.692-.178-1.475-.32-2.362-.409-.888-.107-2.113-.16-3.676-.16h-6.129v19.094h6.963c1.954 0 3.642-.231 5.098-.71 1.457-.462 2.683-1.119 3.642-1.972.977-.853 1.705-1.865 2.185-3.038.496-1.189.727-2.504.727-3.961zm17.656 45.685c0 .391-.071.711-.214.978-.142.248-.461.461-.994.639-.515.178-1.278.303-2.291.373-.995.071-2.362.107-4.104.107-1.456 0-2.628-.036-3.481-.107-.87-.07-1.563-.213-2.06-.391-.498-.195-.853-.443-1.066-.729-.213-.301-.391-.657-.533-1.065l-6.021-15.044c-.729-1.705-1.439-3.215-2.132-4.53-.71-1.313-1.474-2.415-2.327-3.304-.853-.888-1.829-1.545-2.931-2.006-1.118-.445-2.397-.676-3.854-.676h-4.263v25.666c0 .338-.124.658-.337.924-.231.284-.604.516-1.119.675-.533.178-1.227.319-2.097.427-.852.106-1.971.16-3.321.16-1.313 0-2.415-.054-3.304-.16-.888-.107-1.599-.249-2.113-.427-.515-.159-.889-.391-1.083-.675-.214-.266-.32-.586-.32-.924v-61.155c0-1.527.391-2.628 1.173-3.303.781-.676 1.74-1.013 2.895-1.013h17.425c1.776 0 3.232.036 4.369.107 1.155.071 2.185.16 3.126.248 2.7.391 5.134 1.048 7.318 1.99 2.167.941 3.996 2.149 5.507 3.658 1.509 1.51 2.664 3.304 3.463 5.365.8 2.06 1.19 4.441 1.19 7.105 0 2.256-.285 4.316-.854 6.163-.568 1.865-1.42 3.517-2.521 4.974-1.119 1.456-2.487 2.717-4.121 3.801-1.616 1.066-3.481 1.936-5.56 2.594 1.013.497 1.954 1.083 2.843 1.775.87.693 1.705 1.527 2.486 2.522.781.995 1.527 2.114 2.221 3.375.691 1.279 1.367 2.7 2.024 4.298l5.666 13.269c.532 1.315.87 2.292 1.048 2.896.178.604.267 1.083.267 1.42zm-57.425-5.72c0 3.232-.551 5.4-1.688 6.502-1.119 1.119-3.144 1.669-6.057 1.669-2.913 0-4.938-.55-6.039-1.634-1.119-1.102-1.67-3.162-1.67-6.217 0-3.268.568-5.453 1.688-6.555 1.137-1.119 3.18-1.67 6.128-1.67 2.877 0 4.866.551 5.986 1.635 1.101 1.102 1.652 3.18 1.652 6.27z" sketch:type="MSShapeGroup"/></g></svg>