<svg width="74" height="50" viewBox="0 0 74 50" xmlns="http://www.w3.org/2000/svg" xmlns:sketch="http://www.bohemiancoding.com/sketch/ns"><title>Slice 1</title><path d="M11.561 30.168c1.157 0 2.091-.391 2.801-1.173s1.078-1.783 1.105-3.003c0-1.14-.355-2.115-1.065-2.923-.71-.809-1.657-1.214-2.84-1.214-1.21 0-2.157.398-2.841 1.193-.684.796-1.026 1.777-1.026 2.944 0 1.22.342 2.227 1.026 3.023.684.795 1.631 1.18 2.84 1.153zm16.033 6.292c1.157 0 2.091-.391 2.801-1.173.71-.783 1.078-1.783 1.105-3.003 0-1.14-.355-2.115-1.065-2.923-.71-.809-1.657-1.213-2.84-1.213-1.21 0-2.157.398-2.841 1.193-.684.795-1.026 1.777-1.026 2.943 0 1.22.342 2.227 1.026 3.023.684.796 1.631 1.18 2.841 1.153zm-17.177-29.083h8.167l-6.747 9.745c.368-.106.736-.192 1.105-.259.368-.066.763-.099 1.184-.099 2.446 0 4.432.855 5.958 2.565.501.562.92 1.176 1.256 1.842l5.11-7.503h8.167l-6.746 9.745c.368-.106.736-.192 1.105-.258.368-.067.763-.099 1.183-.099 2.446 0 4.432.855 5.958 2.565 1.526 1.71 2.288 3.905 2.288 6.583 0 2.864-.947 5.264-2.841 7.199-1.894 1.936-4.524 2.904-7.89 2.904-3.183 0-5.747-.915-7.694-2.745-1.374-1.292-2.256-2.894-2.648-4.806-1.578.839-3.475 1.259-5.692 1.259-3.183 0-5.747-.915-7.694-2.744-1.946-1.83-2.907-4.283-2.88-7.358 0-1.724.237-3.308.71-4.753.473-1.445 1.249-2.95 2.328-4.514l6.312-9.268zm62.685 22.012c0 1.076-.157 2.041-.475 2.895-.314.849-.78 1.573-1.39 2.162-.614.589-1.371 1.035-2.276 1.345-.9.306-1.939.459-3.107.459-1.103 0-2.092-.135-2.964-.413-.877-.278-1.616-.696-2.221-1.257-.6-.561-1.062-1.262-1.385-2.102-.319-.835-.48-1.819-.48-2.942v-10.698c0-.088.028-.172.083-.241.051-.074.148-.135.291-.176.139-.046.323-.084.545-.112.226-.028.517-.042.868-.042.342 0 .628.014.849.042.226.028.406.065.545.112.134.042.231.102.291.176.055.07.088.153.088.241v10.388c0 .696.083 1.299.254 1.814.171.51.42.937.739 1.271.319.334.702.585 1.15.752.448.167.946.255 1.496.255.558 0 1.057-.088 1.5-.26.443-.171.817-.422 1.122-.756.309-.329.545-.738.711-1.22.166-.487.249-1.039.249-1.651v-10.592c0-.088.028-.172.083-.241.051-.074.148-.135.282-.176.138-.046.319-.084.549-.112.231-.028.517-.042.859-.042.342 0 .623.014.845.042.222.028.397.065.536.112.134.042.231.102.282.176.055.07.083.153.083.241v10.55zm-18.989-5.846c0-.58-.129-1.067-.392-1.466-.259-.399-.688-.682-1.284-.844-.18-.046-.383-.084-.614-.107-.231-.028-.549-.042-.955-.042h-1.593v4.987h1.81c.508 0 .947-.06 1.325-.185.379-.121.697-.292.947-.515.254-.223.443-.487.568-.794.129-.311.189-.654.189-1.035zm4.589 11.933c0 .102-.018.186-.056.255-.037.065-.12.12-.258.167-.134.046-.332.079-.595.097-.259.019-.614.028-1.067.028-.378 0-.683-.009-.905-.028-.226-.018-.406-.056-.535-.102-.129-.051-.222-.116-.277-.19-.055-.079-.102-.172-.139-.278l-1.565-3.929c-.189-.445-.374-.84-.554-1.183-.185-.343-.383-.631-.605-.863-.222-.232-.475-.404-.762-.524-.291-.116-.623-.177-1.002-.177h-1.108v6.704c0 .088-.032.172-.088.241-.06.074-.157.135-.291.176-.139.046-.319.083-.545.112-.221.028-.512.042-.863.042-.341 0-.628-.014-.859-.042-.231-.028-.416-.065-.549-.112-.134-.042-.231-.102-.282-.176-.056-.069-.083-.153-.083-.241v-15.973c0-.399.102-.686.305-.863.203-.177.452-.265.752-.265h4.529c.462 0 .84.009 1.136.028l.813.065c.702.102 1.334.274 1.902.52.563.246 1.039.561 1.431.955.392.394.692.863.9 1.401.208.538.309 1.16.309 1.856 0 .589-.074 1.127-.222 1.61-.148.487-.369.919-.655 1.299-.291.38-.646.71-1.071.993-.42.278-.905.506-1.445.678.263.13.508.283.739.464.226.181.443.399.646.659s.397.552.577.882c.18.334.355.705.526 1.123l1.473 3.466c.138.343.226.599.272.756.046.158.069.283.069.371zm-14.926-1.494c0 .844-.143 1.41-.439 1.698-.291.292-.817.436-1.574.436-.757 0-1.284-.144-1.57-.427-.291-.288-.434-.826-.434-1.624 0-.854.148-1.424.439-1.712.296-.292.827-.436 1.593-.436.748 0 1.265.144 1.556.427.286.288.429.831.429 1.638z" sketch:type="MSShapeGroup" fill="#fff"/></svg>